<?xml version="1.0" encoding="utf-8"?>
<!-- Generator: Adobe Illustrator 16.0.0, SVG Export Plug-In . SVG Version: 6.00 Build 0)  -->
<!DOCTYPE svg PUBLIC "-//W3C//DTD SVG 1.1//EN" "http://www.w3.org/Graphics/SVG/1.1/DTD/svg11.dtd">
<svg version="1.1" id="Camada_1" xmlns="http://www.w3.org/2000/svg" xmlns:xlink="http://www.w3.org/1999/xlink" x="0px" y="0px"
	 width="425.2px" height="66.758px" viewBox="0 0 425.2 66.758" enable-background="new 0 0 425.2 66.758" xml:space="preserve">
<g>
	<linearGradient id="SVGID_1_" gradientUnits="userSpaceOnUse" x1="27.5425" y1="66.3613" x2="27.5425" y2="0.2202">
		<stop  offset="0" style="stop-color:#A31E22"/>
		<stop  offset="0.0921" style="stop-color:#B42325"/>
		<stop  offset="0.2483" style="stop-color:#CB2A2B"/>
		<stop  offset="0.4261" style="stop-color:#DC2F2F"/>
		<stop  offset="0.6416" style="stop-color:#E93332"/>
		<stop  offset="1" style="stop-color:#EE3433"/>
	</linearGradient>
	<path fill-rule="evenodd" clip-rule="evenodd" fill="url(#SVGID_1_)" d="M38.417,52.5c-0.002-1.035-0.023-1.466-0.725-2.248
		c-2.314-2.587-6.863,1.77-9.273,1.961c-4.074,0.321-6.545-4.558-6.922-7.954c-0.375-3.408,0.387-7.403,3.736-9.067
		c4.504-2.232,6.531,2.654,10.131,2.1c0.816,0.094,1.316-0.468,1.316-0.468c0.951-1.142,0.693-4.525,0.693-4.525
		s-0.156-4.102,0.125-5.136c1.135-5.64,9.309,0.92,12.971,0.557c7.498-0.748,5.305-12.927-2.59-11.414
		c-2.383,0.48-6.498,4.221-8.941,2.203c-0.51-0.421-0.494-2.095-0.52-2.547l0.07-9.909C22.777-0.669,8.296-3.582,2.601,8.47
		C-8.84,32.687,20.087,57.113,38.4,66.361L38.417,52.5C38.416,51.465,38.417,52.5,38.417,52.5z"/>
	<linearGradient id="SVGID_2_" gradientUnits="userSpaceOnUse" x1="52.7524" y1="66.7676" x2="52.7524" y2="8.0564">
		<stop  offset="0" style="stop-color:#80171A"/>
		<stop  offset="0.0119" style="stop-color:#82181A"/>
		<stop  offset="0.1458" style="stop-color:#981C1F"/>
		<stop  offset="0.2928" style="stop-color:#AA1E22"/>
		<stop  offset="0.46" style="stop-color:#B61F24"/>
		<stop  offset="0.6628" style="stop-color:#BE2025"/>
		<stop  offset="1" style="stop-color:#C02026"/>
	</linearGradient>
	<path fill="url(#SVGID_2_)" d="M49.554,13.02c6.443-0.405,10.191,6.746,8.033,12.439c-2.883,7.602-10.131,4.673-15.479,2.626
		c-0.516-0.312-1.313,0.258-1.313,0.822l-0.027,0.108c-0.117,0.51-0.102,1.73-0.035,3.505c0.137,1.772,0.184,5.107-1.096,6.642
		c-0.73,0.822-1.801,1.23-2.893,1.193h-0.01c-0.885,0-1.832,0.106-3.795-1.01l-0.371-0.211c-4.779-2.604-9.004-0.597-8.221,5.097
		c0.238,1.545,0.729,3.357,1.861,4.278c0.674,0.515,1.967,1.086,2.852,0.95c3.865-0.307,7.531-5.277,11.359-1.01
		c1.143,1.279,1.23,2.247,1.234,3.574l0.012,14.743C62.839,58.342,89.503,32.199,78.81,8.232
		C73.392-3.909,57.486-0.902,41.658,6.328l0.029,7.664c0,0-0.004,0.569,0.145,1.08c0.145,0.51,0.936,0.604,2.182-0.022
		C44.013,15.05,48.025,13.116,49.554,13.02C51.718,12.884,48.025,13.116,49.554,13.02z"/>
	<g>
		<path d="M97.113,12.586c3.168-0.576,7.561-1.008,13.537-1.008c6.48,0,11.233,1.368,14.329,3.96
			c2.881,2.376,4.753,6.192,4.753,10.729c0,4.608-1.44,8.425-4.177,11.017c-3.528,3.528-9.072,5.185-15.337,5.185
			c-1.656,0-3.169-0.072-4.32-0.288v18.29h-8.785V12.586z M105.898,35.196c1.08,0.287,2.52,0.359,4.32,0.359
			c6.624,0,10.656-3.24,10.656-8.928c0-5.4-3.744-8.281-9.864-8.281c-2.448,0-4.177,0.216-5.112,0.432V35.196z"/>
		<path d="M162.707,52.045c0,3.169,0.145,6.266,0.504,8.426h-7.992l-0.576-3.889h-0.216c-2.16,2.736-5.833,4.68-10.369,4.68
			c-7.057,0-11.018-5.111-11.018-10.44c0-8.856,7.85-13.321,20.811-13.249v-0.576c0-2.304-0.937-6.121-7.129-6.121
			c-3.456,0-7.057,1.08-9.433,2.592l-1.729-5.76c2.593-1.584,7.129-3.096,12.673-3.096c11.233,0,14.474,7.128,14.474,14.762V52.045z
			 M154.066,43.332c-6.265-0.143-12.241,1.225-12.241,6.553c0,3.457,2.232,5.041,5.041,5.041c3.527,0,6.12-2.305,6.912-4.824
			c0.216-0.648,0.288-1.368,0.288-1.944V43.332z"/>
		<path d="M172.063,36.708c0-4.752-0.071-8.137-0.287-11.305h7.704l0.288,6.696h0.288c1.729-4.968,5.832-7.488,9.577-7.488
			c0.863,0,1.368,0.072,2.088,0.216v8.353c-0.72-0.144-1.512-0.288-2.592-0.288c-4.249,0-7.129,2.736-7.921,6.696
			c-0.145,0.793-0.288,1.729-0.288,2.736v18.146h-8.857V36.708z"/>
		<path fill="#6D6E71" d="M198.416,12.514c3.024-0.504,6.984-0.936,12.024-0.936c6.193,0,10.73,1.44,13.609,4.032
			c2.664,2.304,4.25,5.833,4.25,10.153c0,4.393-1.297,7.849-3.746,10.369c-3.311,3.528-8.711,5.329-14.833,5.329
			c-1.872,0-3.601-0.072-5.04-0.433v19.442h-6.265V12.514z M204.68,35.916c1.368,0.36,3.096,0.504,5.185,0.504
			c7.561,0,12.168-3.672,12.168-10.369c0-6.409-4.537-9.505-11.449-9.505c-2.736,0-4.824,0.216-5.904,0.504V35.916z"/>
		<path fill="#6D6E71" d="M238.232,44.197c0.143,8.568,5.615,12.097,11.951,12.097c4.537,0,7.273-0.792,9.65-1.8l1.08,4.536
			c-2.232,1.008-6.049,2.231-11.594,2.231c-10.729,0-17.137-7.128-17.137-17.641s6.191-18.794,16.346-18.794
			c11.377,0,14.4,10.009,14.4,16.417c0,1.297-0.145,2.305-0.217,2.953H238.232z M256.809,39.66
			c0.072-4.032-1.656-10.296-8.785-10.296c-6.408,0-9.217,5.905-9.721,10.296H256.809z"/>
		<path fill="#6D6E71" d="M270.775,36.492c0-4.104-0.072-7.633-0.289-10.873h5.545l0.215,6.841h0.289
			c1.584-4.681,5.4-7.633,9.648-7.633c0.721,0,1.225,0.072,1.801,0.216v5.977c-0.648-0.144-1.297-0.216-2.16-0.216
			c-4.465,0-7.633,3.385-8.498,8.137c-0.143,0.864-0.287,1.872-0.287,2.952v18.578h-6.264V36.492z"/>
		<path fill="#6D6E71" d="M297.127,60.471V30.444h-4.896v-4.825h4.896v-1.656c0-4.896,1.08-9.361,4.031-12.169
			c2.377-2.304,5.545-3.24,8.498-3.24c2.232,0,4.176,0.504,5.4,1.008l-0.865,4.896c-0.936-0.432-2.232-0.792-4.031-0.792
			c-5.4,0-6.77,4.752-6.77,10.081v1.872h8.426v4.825h-8.426v30.027H297.127z"/>
		<path fill="#6D6E71" d="M320.096,44.197c0.145,8.568,5.617,12.097,11.953,12.097c4.537,0,7.273-0.792,9.648-1.8l1.08,4.536
			c-2.232,1.008-6.049,2.231-11.592,2.231c-10.73,0-17.139-7.128-17.139-17.641s6.193-18.794,16.346-18.794
			c11.377,0,14.4,10.009,14.4,16.417c0,1.297-0.143,2.305-0.215,2.953H320.096z M338.674,39.66
			c0.072-4.032-1.656-10.296-8.785-10.296c-6.408,0-9.217,5.905-9.721,10.296H338.674z"/>
		<path fill="#6D6E71" d="M359.695,15.826c0.072,2.16-1.512,3.889-4.033,3.889c-2.23,0-3.814-1.729-3.814-3.889
			c0-2.232,1.654-3.96,3.959-3.96C358.184,11.866,359.695,13.594,359.695,15.826z M352.639,60.471V25.619h6.336v34.852H352.639z"/>
		<path fill="#6D6E71" d="M377.119,17.267v8.353h9.072v4.825h-9.072v18.793c0,4.32,1.225,6.769,4.752,6.769
			c1.729,0,2.736-0.145,3.672-0.432l0.289,4.752c-1.225,0.504-3.168,0.936-5.617,0.936c-2.951,0-5.328-1.008-6.84-2.736
			c-1.801-1.871-2.449-4.968-2.449-9.072V30.444h-5.4v-4.825h5.4V19.21L377.119,17.267z"/>
		<path fill="#6D6E71" d="M424.424,42.757c0,12.89-8.928,18.505-17.354,18.505c-9.432,0-16.705-6.912-16.705-17.93
			c0-11.665,7.633-18.505,17.281-18.505C417.656,24.827,424.424,32.1,424.424,42.757z M396.773,43.117
			c0,7.633,4.393,13.393,10.586,13.393c6.049,0,10.584-5.688,10.584-13.537c0-5.904-2.951-13.393-10.439-13.393
			C400.014,29.58,396.773,36.492,396.773,43.117z"/>
	</g>
</g>
<g>
</g>
<g>
</g>
<g>
</g>
<g>
</g>
<g>
</g>
<g>
</g>
</svg>
